:SAMPLES-PER-SECOND 30
:FULLY-SPECIFIED
:DEGREES
1282
root  -50.5551 40.1907 30.9314 -178.316 -38.6682 170.122
RightUpLeg  -21.0853 -4.5279 -8.29509
RightLeg  53.9237 -2.05261 -3.39717
RightFoot  0.904594 -0.295052 2.78868
RightToes  0.00048216 0.542163 -0.142577
Spine  19.2522 0.937272 1.47642
Spine1  9.78052 1.4761 -0.822828
HEad  -15.0676 3.22881 56.6375
LeftShoulder1  7.7793 -12.0861 -43.4059
LeftArm  -13.9863 20.4526 -25.6651
LeftForeArm  38.2997 -39.522 -6.83418
LeftHand  -0.25398 0.0180481 5.50724
RightShoulder  6.03091 10.4348 37.25
RightArm  -2.66535 -4.4281 35.9898
RightForeArm  21.274 67.7265 26.656
RightHand  -6.30597 16.3093 -33.2549
LeftUpLeg  -7.0663 18.1358 -3.03359
LeftLeg  16.0116 4.17104 -0.777738
LeftFoot  -2.37666 0.0193618 -0.0685166
LeftToes  1.06246e-005 4.65856e-005 -8.18502e-006
1283
root  -51.5061 40.3797 30.7584 -177.177 -36.9361 170.336
RightUpLeg  -22.9381 -7.52978 -5.42576
RightLeg  44.7176 -3.10134 -3.55257
RightFoot  -0.210215 -0.131241 1.30152
RightToes  0.00048216 0.542163 -0.142577
Spine  19.0494 1.0894 1.9855
Spine1  10.0859 1.82302 -1.15966
HEad  -16.292 3.6896 58.0923
LeftShoulder1  7.7422 -12.1716 -42.9374
LeftArm  -15.4095 20.0403 -25.0424
LeftForeArm  38.9811 -44.7701 -8.42577
LeftHand  -0.25398 0.0180481 5.50724
RightShoulder  6.17947 10.6651 37.5839
RightArm  -3.44121 -0.634051 35.6755
RightForeArm  15.618 64.5192 22.954
RightHand  -6.99844 17.8037 -34.43
LeftUpLeg  -5.9697 14.4451 -3.12177
LeftLeg  13.9723 9.64181 -1.84548
LeftFoot  -2.78598 0.00671065 0.133877
LeftToes  1.06246e-005 4.65856e-005 -8.18502e-006
1284
root  -52.4399 40.4722 30.5517 -176.307 -35.4633 170.266
RightUpLeg  -23.1556 -12.0315 -2.49909
RightLeg  33.4201 -4.29254 -3.44033
RightFoot  -1.91013 -0.0618723 0.655554
RightToes  0.00048216 0.542163 -0.142577
Spine  19.32 1.10381 2.27514
Spine1  10.3152 1.93967 -1.25664
HEad  -17.0616 4.0031 58.2709
LeftShoulder1  7.78921 -12.1859 -43.1724
LeftArm  -16.5879 19.8166 -23.7797
LeftForeArm  39.6074 -50.1016 -10.3803
LeftHand  -0.25398 0.0180481 5.50724
RightShoulder  6.20614 10.6662 37.7621
RightArm  -3.71711 3.7717 35.2568
RightForeArm  10.6549 60.9224 19.7553
RightHand  -7.57949 18.8587 -35.5624
LeftUpLeg  -4.85931 11.362 -3.57602
LeftLeg  12.5618 14.2199 -2.78719
LeftFoot  -3.81361 0.0102261 0.191496
LeftToes  1.06246e-005 4.65856e-005 -8.18502e-006
1285
root  -53.3568 40.4587 30.2782 -175.074 -34.3954 169.546
RightUpLeg  -22.6644 -18.2069 -0.025204
RightLeg  21.3821 -4.67156 -1.76265
RightFoot  -2.61041 -0.284104 3.39193
RightToes  0.00048216 0.542163 -0.142577
Spine  19.4901 1.09429 2.14787
Spine1  10.6655 1.96369 -1.31497
HEad  -18.0078 3.93521 57.1257
LeftShoulder1  7.82077 -12.2145 -43.2744
LeftArm  -17.4142 19.388 -22.8171
LeftForeArm  40.1251 -54.3251 -12.2917
LeftHand  -0.25398 0.0180481 5.50724
RightShoulder  6.17613 10.5676 37.8521
RightArm  -4.10458 8.28301 34.7148
RightForeArm  6.54863 57.0627 17.0508
RightHand  -8.32586 20.1187 -36.9959
LeftUpLeg  -4.14889 9.43673 -4.83619
LeftLeg  11.9147 17.2709 -3.41144
LeftFoot  -5.41242 0.0119612 0.404156
LeftToes  1.06246e-005 4.65856e-005 -8.18502e-006
1286
root  -54.2499 40.3758 29.9432 -173.586 -33.5244 168.283
RightUpLeg  -20.9523 -18.2066 -0.780593
RightLeg  10.0159 -11.2954 2.10639
RightFoot  -0.992683 -0.498836 5.46803
RightToes  0.00048216 0.542163 -0.142577
Spine  19.4754 1.19852 1.96699
Spine1  11.1881 2.1396 -1.5597
HEad  -19.7068 3.97222 56.6887
LeftShoulder1  7.8004 -12.3275 -42.8289
LeftArm  -17.8568 18.8403 -22.5985
LeftForeArm  40.3318 -57.1201 -13.8399
LeftHand  -0.25398 0.0180481 5.50724
RightShoulder  6.18977 10.6304 37.7576
RightArm  -5.00704 12.3117 33.9514
RightForeArm  2.86345 52.9751 14.7746
RightHand  -9.29007 21.8015 -38.5657
LeftUpLeg  -3.63646 8.61633 -6.79042
LeftLeg  11.7291 18.8646 -3.62023
LeftFoot  -6.67647 -0.00783347 1.1927
LeftToes  1.06246e-005 4.65856e-005 -8.18502e-006
1287
root  -55.1043 40.2554 29.5949 -172.691 -32.6624 167.135
RightUpLeg  -18.3716 -8.8675 -4.83169
RightLeg  1.27179 -25.4431 7.02846
RightFoot  2.48515 -0.0608945 0.830083
RightToes  0.00048216 0.542163 -0.142577
Spine  19.9669 1.38236 2.5
Spine1  11.7182 2.51987 -1.96123
HEad  -21.5551 3.93131 56.8986
LeftShoulder1  7.82939 -12.5207 -42.446
LeftArm  -18.151 18.4317 -22.6688
LeftForeArm  40.7468 -59.1184 -15.0965
LeftHand  -0.25398 0.0180481 5.50724
RightShoulder  6.23861 10.8534 37.4288
RightArm  -6.23079 16.0136 32.8917
RightForeArm  -1.19301 48.4699 12.7793
RightHand  -10.2389 23.4335 -39.9429
LeftUpLeg  -2.94616 11.3928 -8.87068
LeftLeg  12.3433 16.8438 -2.984
LeftFoot  -8.0253 -0.0153482 2.23266
LeftToes  1.06246e-005 4.65856e-005 -8.18502e-006
1288
root  -55.9381 40.0989 29.286 -172.683 -31.6123 166.776
RightUpLeg  -18.914 -8.99228 -4.04444
RightLeg  0.798048 -26.1708 6.66032
RightFoot  5.39534 1.33886 -8.86595
RightToes  0.00048216 0.542163 -0.142577
Spine  21.3299 1.42906 4.56578
Spine1  12.089 3.2039 -2.92315
HEad  -23.2084 3.58805 56.597
LeftShoulder1  7.99135 -12.7566 -42.7122
LeftArm  -18.388 18.0792 -22.6478
LeftForeArm  42.1479 -60.7107 -16.1046
LeftHand  -0.25398 0.0180481 5.50724
RightShoulder  6.23128 10.9982 36.9584
RightArm  -7.50888 19.9789 31.5624
RightForeArm  -6.09027 43.5136 11.0256
RightHand  -11.0793 24.6812 -41.2696
LeftUpLeg  -3.12139 20.6062 -10.6925
LeftLeg  15.2852 8.7696 -0.794969
LeftFoot  -10.1935 0.0355462 1.91729
LeftToes  1.06246e-005 4.65856e-005 -8.18502e-006
1289
root  -56.7775 39.9403 29.0429 -173.217 -30.2622 167.588
RightUpLeg  -20.9422 -8.98938 -3.24613
RightLeg  5.72811 -25.0881 4.47747
RightFoot  6.26776 2.60834 -16.501
RightToes  0.00048216 0.542163 -0.142577
Spine  23.3654 1.14054 8.47133
Spine1  12.3364 4.29854 -4.76486
HEad  -25.1756 3.4244 55.788
LeftShoulder1  8.25338 -13.0518 -43.3656
LeftArm  -18.2663 17.5337 -22.889
LeftForeArm  44.3143 -61.4667 -16.4667
LeftHand  -0.25398 0.0180481 5.50724
RightShoulder  6.11314 10.9623 36.2673
RightArm  -8.97537 24.357 30.0167
RightForeArm  -11.4529 38.4052 9.54508
RightHand  -12.0351 25.8667 -42.925
LeftUpLeg  -5.91523 28.0352 -11.671
LeftLeg  22.0545 2.45507 1.91104
LeftFoot  -11.4655 0.0724767 -0.729165
LeftToes  1.06246e-005 4.65856e-005 -8.18502e-006
